<svg width="35" height="33" viewBox="0 0 35 33" fill="none" xmlns="http://www.w3.org/2000/svg">
<path d="M5 3.39374H26.6074C28.7613 3.39374 30.5078 5.14022 30.5078 7.29413V28.0002C30.5077 30.154 28.7613 31.8996 26.6074 31.8996H5C2.84615 31.8996 1.0997 30.154 1.09961 28.0002V7.29413C1.09961 5.14022 2.84609 3.39374 5 3.39374Z" fill="#F4ECE1" stroke="black" stroke-width="2.2"/>
<path d="M5 3.39374H26.6074C28.7613 3.39374 30.5078 5.14022 30.5078 7.29413V28.0002C30.5077 30.154 28.7613 31.8996 26.6074 31.8996H5C2.84615 31.8996 1.0997 30.154 1.09961 28.0002V7.29413C1.09961 5.14022 2.84609 3.39374 5 3.39374Z" fill="#F4ECE1" stroke="black" stroke-width="2.2"/>
<path d="M15.4588 14.7782L27.9774 2.19736C28.328 1.84501 28.897 1.84501 29.2476 2.19736L31.9346 4.8978C32.2832 5.24805 32.2857 5.8156 31.9402 6.16877L25.7346 12.5049L19.4167 18.8043C19.0639 19.1559 18.4939 19.1531 18.1452 18.7974L15.454 16.0499C15.108 15.6968 15.1101 15.1286 15.4588 14.7782Z" fill="#F4ECE1" stroke="black" stroke-width="2.2"/>
<path d="M15.1692 16.2118L13.2794 19.3126C12.7593 20.1659 13.6743 21.1702 14.5722 20.7316L17.9349 19.089" stroke="black" stroke-width="2" stroke-linecap="round"/>
<path d="M24 7L27 10" stroke="black" stroke-width="2.2"/>
</svg>
