<svg width="34" height="30" viewBox="0 0 34 30" fill="none" xmlns="http://www.w3.org/2000/svg">
<path d="M5 4.73596H24.8789C27.0328 4.73603 28.7783 6.48249 28.7783 8.63635V24.9996C28.7783 27.1535 27.0328 28.9 24.8789 28.9H5C2.84609 28.9 1.09961 27.1535 1.09961 24.9996V8.63635C1.09961 6.48244 2.84609 4.73596 5 4.73596Z" fill="#F4ECE1" stroke="black" stroke-width="2.2"/>
<path d="M9.12122 1.09961H29.0001C31.154 1.09968 32.8995 2.84613 32.8995 5V21.3633C32.8995 23.5171 31.154 25.2636 29.0001 25.2637H9.12122C6.96731 25.2637 5.22083 23.5172 5.22083 21.3633V5C5.22083 2.84609 6.9673 1.09961 9.12122 1.09961Z" fill="#F4ECE1" stroke="black" stroke-width="2.2"/>
<line x1="19.6455" y1="6.55453" x2="19.6455" y2="18.9" stroke="black" stroke-width="2.2" stroke-linecap="round"/>
<line x1="12.4334" y1="12.5364" x2="26.7182" y2="12.5364" stroke="black" stroke-width="2.2" stroke-linecap="round"/>
</svg>
