<svg width="30" height="25" viewBox="0 0 30 25" fill="none" xmlns="http://www.w3.org/2000/svg">
<mask id="path-1-inside-1_102_29" fill="white">
<path d="M16.8975 2.17966C19.8948 -0.726566 24.7546 -0.726533 27.752 2.17966C30.7493 5.0859 30.7493 9.79783 27.752 12.7041L15.0713 25L15 24.9306L14.9287 25L2.24805 12.7041C-0.749308 9.79783 -0.749308 5.0859 2.24805 2.17966C5.24541 -0.726533 10.1052 -0.726566 13.1025 2.17966L15 4.0195L16.8975 2.17966Z"/>
</mask>
<path d="M16.8975 2.17966C19.8948 -0.726566 24.7546 -0.726533 27.752 2.17966C30.7493 5.0859 30.7493 9.79783 27.752 12.7041L15.0713 25L15 24.9306L14.9287 25L2.24805 12.7041C-0.749308 9.79783 -0.749308 5.0859 2.24805 2.17966C5.24541 -0.726533 10.1052 -0.726566 13.1025 2.17966L15 4.0195L16.8975 2.17966Z" fill="#F4ECE1"/>
<path d="M16.8975 2.17966L15.366 0.600201L15.366 0.600227L16.8975 2.17966ZM27.752 2.17966L29.2834 0.600201L29.2834 0.600186L27.752 2.17966ZM27.752 12.7041L26.2205 11.1246L26.2205 11.1247L27.752 12.7041ZM15.0713 25L13.5374 26.5771L15.069 28.0667L16.6028 26.5794L15.0713 25ZM15 24.9306L16.5339 23.3535L15 21.8617L13.4661 23.3535L15 24.9306ZM14.9287 25L13.3972 26.5794L14.931 28.0667L16.4626 26.5771L14.9287 25ZM2.24805 12.7041L3.77954 11.1247L3.77949 11.1246L2.24805 12.7041ZM2.24805 2.17966L0.716619 0.600186L0.716604 0.600201L2.24805 2.17966ZM13.1025 2.17966L14.634 0.600227L14.634 0.600201L13.1025 2.17966ZM15 4.0195L13.4685 5.59893L15 7.0839L16.5315 5.59893L15 4.0195ZM16.8975 2.17966L18.4289 3.75911C20.5729 1.6803 24.0765 1.6803 26.2205 3.75913L27.752 2.17966L29.2834 0.600186C25.4327 -3.13336 19.2167 -3.13343 15.366 0.600201L16.8975 2.17966ZM27.752 2.17966L26.2205 3.75911C28.3265 5.80104 28.3265 9.08269 26.2205 11.1246L27.752 12.7041L29.2834 14.2835C33.1722 10.513 33.1722 4.37075 29.2834 0.600201L27.752 2.17966ZM27.752 12.7041L26.2205 11.1247L13.5398 23.4206L15.0713 25L16.6028 26.5794L29.2834 14.2835L27.752 12.7041ZM15.0713 25L16.6052 23.4229L16.5339 23.3535L15 24.9306L13.4661 26.5077L13.5374 26.5771L15.0713 25ZM15 24.9306L13.4661 23.3535L13.3948 23.4229L14.9287 25L16.4626 26.5771L16.5339 26.5077L15 24.9306ZM14.9287 25L16.4602 23.4206L3.77954 11.1247L2.24805 12.7041L0.716558 14.2835L13.3972 26.5794L14.9287 25ZM2.24805 12.7041L3.77949 11.1246C1.67354 9.08269 1.67354 5.80104 3.77949 3.75911L2.24805 2.17966L0.716604 0.600201C-3.17216 4.37075 -3.17216 10.513 0.716604 14.2835L2.24805 12.7041ZM2.24805 2.17966L3.77948 3.75913C5.92352 1.6803 9.4271 1.6803 11.5711 3.75911L13.1025 2.17966L14.634 0.600201C10.7833 -3.13343 4.56729 -3.13336 0.716619 0.600186L2.24805 2.17966ZM13.1025 2.17966L11.5711 3.75909L13.4685 5.59893L15 4.0195L16.5315 2.44007L14.634 0.600227L13.1025 2.17966ZM15 4.0195L16.5315 5.59893L18.4289 3.75909L16.8975 2.17966L15.366 0.600227L13.4685 2.44007L15 4.0195Z" fill="black" mask="url(#path-1-inside-1_102_29)"/>
</svg>
